<mxfile host="app.diagrams.net" modified="2023-05-06T07:08:21.140Z" agent="Mozilla/5.0 (Windows NT 10.0; Win64; x64) AppleWebKit/537.36 (KHTML, like Gecko) Chrome/112.0.0.0 Safari/537.36 Edg/112.0.1722.68" etag="vml80-JcTljytGNq4K_E" version="21.2.9" type="github">
  <diagram name="Page-1" id="y2jglfqxQkzF_y9Ci3af">
    <mxGraphModel dx="1023" dy="470" grid="1" gridSize="10" guides="1" tooltips="1" connect="1" arrows="1" fold="1" page="1" pageScale="1" pageWidth="850" pageHeight="1100" math="0" shadow="0">
      <root>
        <mxCell id="0" />
        <mxCell id="1" parent="0" />
        <mxCell id="RQ1mcf9qswTS3ay5NAJn-8" style="edgeStyle=orthogonalEdgeStyle;shape=flexArrow;rounded=0;orthogonalLoop=1;jettySize=auto;html=1;" edge="1" parent="1" source="RQ1mcf9qswTS3ay5NAJn-1" target="RQ1mcf9qswTS3ay5NAJn-7">
          <mxGeometry relative="1" as="geometry" />
        </mxCell>
        <mxCell id="RQ1mcf9qswTS3ay5NAJn-1" value="CR 柯西黎曼条件" style="rounded=0;whiteSpace=wrap;html=1;" vertex="1" parent="1">
          <mxGeometry x="200" y="440" width="120" height="60" as="geometry" />
        </mxCell>
        <mxCell id="RQ1mcf9qswTS3ay5NAJn-5" style="edgeStyle=orthogonalEdgeStyle;shape=link;rounded=0;orthogonalLoop=1;jettySize=auto;html=1;exitX=0;exitY=0.5;exitDx=0;exitDy=0;entryX=1;entryY=0.5;entryDx=0;entryDy=0;" edge="1" parent="1" source="RQ1mcf9qswTS3ay5NAJn-2" target="RQ1mcf9qswTS3ay5NAJn-1">
          <mxGeometry relative="1" as="geometry" />
        </mxCell>
        <mxCell id="RQ1mcf9qswTS3ay5NAJn-6" style="edgeStyle=orthogonalEdgeStyle;shape=link;rounded=0;orthogonalLoop=1;jettySize=auto;html=1;exitX=1;exitY=0.5;exitDx=0;exitDy=0;entryX=0;entryY=0.5;entryDx=0;entryDy=0;" edge="1" parent="1" source="RQ1mcf9qswTS3ay5NAJn-2" target="RQ1mcf9qswTS3ay5NAJn-3">
          <mxGeometry relative="1" as="geometry" />
        </mxCell>
        <mxCell id="RQ1mcf9qswTS3ay5NAJn-12" style="edgeStyle=orthogonalEdgeStyle;shape=flexArrow;rounded=0;orthogonalLoop=1;jettySize=auto;html=1;exitX=0.5;exitY=1;exitDx=0;exitDy=0;entryX=0.5;entryY=0;entryDx=0;entryDy=0;" edge="1" parent="1" source="RQ1mcf9qswTS3ay5NAJn-2" target="RQ1mcf9qswTS3ay5NAJn-9">
          <mxGeometry relative="1" as="geometry" />
        </mxCell>
        <mxCell id="RQ1mcf9qswTS3ay5NAJn-2" value="共轭调和函数" style="rounded=0;whiteSpace=wrap;html=1;" vertex="1" parent="1">
          <mxGeometry x="380" y="440" width="120" height="60" as="geometry" />
        </mxCell>
        <mxCell id="RQ1mcf9qswTS3ay5NAJn-14" style="edgeStyle=orthogonalEdgeStyle;shape=link;rounded=0;orthogonalLoop=1;jettySize=auto;html=1;exitX=1;exitY=0.5;exitDx=0;exitDy=0;entryX=0;entryY=0.5;entryDx=0;entryDy=0;" edge="1" parent="1" source="RQ1mcf9qswTS3ay5NAJn-3" target="RQ1mcf9qswTS3ay5NAJn-13">
          <mxGeometry relative="1" as="geometry" />
        </mxCell>
        <mxCell id="RQ1mcf9qswTS3ay5NAJn-3" value="正交曲线族" style="rounded=0;whiteSpace=wrap;html=1;" vertex="1" parent="1">
          <mxGeometry x="560" y="440" width="120" height="60" as="geometry" />
        </mxCell>
        <mxCell id="RQ1mcf9qswTS3ay5NAJn-7" value="拉普拉斯方程" style="rounded=0;whiteSpace=wrap;html=1;" vertex="1" parent="1">
          <mxGeometry x="200" y="560" width="120" height="60" as="geometry" />
        </mxCell>
        <mxCell id="RQ1mcf9qswTS3ay5NAJn-11" style="edgeStyle=orthogonalEdgeStyle;shape=link;rounded=0;orthogonalLoop=1;jettySize=auto;html=1;exitX=0;exitY=0.5;exitDx=0;exitDy=0;entryX=1;entryY=0.5;entryDx=0;entryDy=0;" edge="1" parent="1" source="RQ1mcf9qswTS3ay5NAJn-9" target="RQ1mcf9qswTS3ay5NAJn-7">
          <mxGeometry relative="1" as="geometry" />
        </mxCell>
        <mxCell id="RQ1mcf9qswTS3ay5NAJn-9" value="调和函数" style="rounded=0;whiteSpace=wrap;html=1;" vertex="1" parent="1">
          <mxGeometry x="380" y="560" width="120" height="60" as="geometry" />
        </mxCell>
        <mxCell id="RQ1mcf9qswTS3ay5NAJn-13" value="Conformal 保角变换" style="rounded=0;whiteSpace=wrap;html=1;" vertex="1" parent="1">
          <mxGeometry x="740" y="440" width="120" height="60" as="geometry" />
        </mxCell>
        <mxCell id="RQ1mcf9qswTS3ay5NAJn-17" style="edgeStyle=orthogonalEdgeStyle;shape=flexArrow;rounded=0;orthogonalLoop=1;jettySize=auto;html=1;exitX=0.5;exitY=1;exitDx=0;exitDy=0;" edge="1" parent="1" source="RQ1mcf9qswTS3ay5NAJn-15" target="RQ1mcf9qswTS3ay5NAJn-18">
          <mxGeometry relative="1" as="geometry" />
        </mxCell>
        <mxCell id="RQ1mcf9qswTS3ay5NAJn-15" value="解析" style="rounded=0;whiteSpace=wrap;html=1;" vertex="1" parent="1">
          <mxGeometry x="20" y="310" width="120" height="60" as="geometry" />
        </mxCell>
        <mxCell id="RQ1mcf9qswTS3ay5NAJn-19" style="edgeStyle=orthogonalEdgeStyle;shape=link;rounded=0;orthogonalLoop=1;jettySize=auto;html=1;exitX=1;exitY=0.5;exitDx=0;exitDy=0;entryX=0;entryY=0.5;entryDx=0;entryDy=0;" edge="1" parent="1" source="RQ1mcf9qswTS3ay5NAJn-18" target="RQ1mcf9qswTS3ay5NAJn-1">
          <mxGeometry relative="1" as="geometry" />
        </mxCell>
        <mxCell id="RQ1mcf9qswTS3ay5NAJn-18" value="可导" style="rounded=0;whiteSpace=wrap;html=1;" vertex="1" parent="1">
          <mxGeometry x="20" y="440" width="120" height="60" as="geometry" />
        </mxCell>
        <mxCell id="RQ1mcf9qswTS3ay5NAJn-24" style="edgeStyle=orthogonalEdgeStyle;shape=link;rounded=0;orthogonalLoop=1;jettySize=auto;html=1;exitX=1;exitY=0.5;exitDx=0;exitDy=0;entryX=0;entryY=0.5;entryDx=0;entryDy=0;" edge="1" parent="1" source="RQ1mcf9qswTS3ay5NAJn-21" target="RQ1mcf9qswTS3ay5NAJn-23">
          <mxGeometry relative="1" as="geometry" />
        </mxCell>
        <mxCell id="RQ1mcf9qswTS3ay5NAJn-21" value="奇点" style="rounded=0;whiteSpace=wrap;html=1;" vertex="1" parent="1">
          <mxGeometry x="20" y="130" width="120" height="60" as="geometry" />
        </mxCell>
        <mxCell id="RQ1mcf9qswTS3ay5NAJn-23" value="无定义&lt;br&gt;不可导&lt;br&gt;不可解析" style="rounded=0;whiteSpace=wrap;html=1;" vertex="1" parent="1">
          <mxGeometry x="200" y="130" width="120" height="60" as="geometry" />
        </mxCell>
      </root>
    </mxGraphModel>
  </diagram>
</mxfile>
